<mxfile host="app.diagrams.net" modified="2020-11-18T15:14:16.300Z" agent="5.0 (X11)" etag="N-tCT0UuU_nUDBOPgizp" version="13.9.9" type="github">
  <diagram id="SKtbNTC9j6CT3jW_uAWr" name="Page-1">
    <mxGraphModel dx="1422" dy="783" grid="1" gridSize="10" guides="1" tooltips="1" connect="1" arrows="1" fold="1" page="0" pageScale="1" pageWidth="1169" pageHeight="826" background="#ffffff" math="0" shadow="0">
      <root>
        <mxCell id="0" />
        <mxCell id="1" parent="0" />
        <mxCell id="5" value="vault" style="swimlane;whiteSpace=wrap;html=1;rounded=1;shadow=0;glass=0;comic=0;startSize=23;swimlaneFillColor=#ffffff;fontColor=#ffffff;fillColor=#666666;strokeColor=#666666;" parent="1" vertex="1">
          <mxGeometry x="600" y="40" width="150" height="320" as="geometry" />
        </mxCell>
        <mxCell id="QTO3XgoEFIxhdkZU8tme-128" value="" style="shape=cylinder3;whiteSpace=wrap;html=1;boundedLbl=1;backgroundOutline=1;size=15;rounded=0;glass=0;comic=0;strokeColor=#23445d;strokeWidth=1;fillColor=#bac8d3;" parent="5" vertex="1">
          <mxGeometry x="45" y="220" width="60" height="80" as="geometry" />
        </mxCell>
        <mxCell id="QTO3XgoEFIxhdkZU8tme-129" value="&lt;div&gt;SSH Keys&lt;/div&gt;" style="text;html=1;strokeColor=none;fillColor=none;align=center;verticalAlign=middle;whiteSpace=wrap;rounded=0;glass=0;comic=0;" parent="5" vertex="1">
          <mxGeometry x="55" y="260" width="40" height="20" as="geometry" />
        </mxCell>
        <mxCell id="QTO3XgoEFIxhdkZU8tme-130" value="" style="rounded=0;whiteSpace=wrap;html=1;glass=0;comic=0;strokeWidth=1;fillColor=#BDBDBD;strokeColor=#666666;" parent="5" vertex="1">
          <mxGeometry x="15" y="60" width="120" height="60" as="geometry" />
        </mxCell>
        <mxCell id="QTO3XgoEFIxhdkZU8tme-133" value="" style="rounded=0;whiteSpace=wrap;html=1;glass=0;comic=0;strokeWidth=1;fillColor=#BDBDBD;strokeColor=#666666;" parent="5" vertex="1">
          <mxGeometry x="35" y="160" width="80" height="20" as="geometry" />
        </mxCell>
        <mxCell id="QTO3XgoEFIxhdkZU8tme-134" value="" style="endArrow=classic;startArrow=classic;html=1;entryX=0.5;entryY=1;entryDx=0;entryDy=0;exitX=0.5;exitY=0;exitDx=0;exitDy=0;exitPerimeter=0;strokeColor=#666666;" parent="5" source="QTO3XgoEFIxhdkZU8tme-128" target="QTO3XgoEFIxhdkZU8tme-133" edge="1">
          <mxGeometry width="50" height="50" relative="1" as="geometry">
            <mxPoint x="70" y="220" as="sourcePoint" />
            <mxPoint x="120" y="170" as="targetPoint" />
          </mxGeometry>
        </mxCell>
        <mxCell id="QTO3XgoEFIxhdkZU8tme-135" value="&lt;div&gt;ssh-agent&lt;/div&gt;" style="text;html=1;strokeColor=none;fillColor=none;align=center;verticalAlign=middle;whiteSpace=wrap;rounded=0;glass=0;comic=0;" parent="5" vertex="1">
          <mxGeometry x="42.5" y="160" width="65" height="20" as="geometry" />
        </mxCell>
        <mxCell id="QTO3XgoEFIxhdkZU8tme-136" value="" style="endArrow=classic;startArrow=classic;html=1;strokeColor=#666666;entryX=0.5;entryY=1;entryDx=0;entryDy=0;exitX=0.5;exitY=0;exitDx=0;exitDy=0;" parent="5" source="QTO3XgoEFIxhdkZU8tme-135" target="QTO3XgoEFIxhdkZU8tme-130" edge="1">
          <mxGeometry width="50" height="50" relative="1" as="geometry">
            <mxPoint x="70" y="160" as="sourcePoint" />
            <mxPoint x="120" y="110" as="targetPoint" />
          </mxGeometry>
        </mxCell>
        <mxCell id="QTO3XgoEFIxhdkZU8tme-137" value="ncat" style="text;html=1;strokeColor=none;fillColor=none;align=center;verticalAlign=middle;whiteSpace=wrap;rounded=0;glass=0;comic=0;" parent="5" vertex="1">
          <mxGeometry x="55" y="80" width="40" height="20" as="geometry" />
        </mxCell>
        <mxCell id="90" value="&lt;font color=&quot;#262626&quot;&gt;ssh-client&lt;/font&gt;" style="swimlane;whiteSpace=wrap;html=1;rounded=1;shadow=0;glass=0;comic=0;strokeColor=#6c8ebf;fillColor=#dae8fc;startSize=23;swimlaneFillColor=#ffffff;" parent="1" vertex="1">
          <mxGeometry x="337" y="40" width="150" height="320" as="geometry">
            <mxRectangle x="337" y="40" width="120" height="23" as="alternateBounds" />
          </mxGeometry>
        </mxCell>
        <mxCell id="QTO3XgoEFIxhdkZU8tme-127" value="" style="rounded=0;whiteSpace=wrap;html=1;glass=0;comic=0;strokeWidth=1;fillColor=#DAE8FC;strokeColor=#6C8EBF;" parent="90" vertex="1">
          <mxGeometry x="15" y="60" width="120" height="60" as="geometry" />
        </mxCell>
        <mxCell id="QTO3XgoEFIxhdkZU8tme-131" value="" style="endArrow=classic;startArrow=classic;html=1;entryX=0;entryY=0.5;entryDx=0;entryDy=0;dashed=1;dashPattern=1 1;" parent="90" target="QTO3XgoEFIxhdkZU8tme-130" edge="1">
          <mxGeometry width="50" height="50" relative="1" as="geometry">
            <mxPoint x="133" y="90" as="sourcePoint" />
            <mxPoint x="183" y="40" as="targetPoint" />
          </mxGeometry>
        </mxCell>
        <mxCell id="QTO3XgoEFIxhdkZU8tme-138" value="ncat" style="text;html=1;strokeColor=none;fillColor=none;align=center;verticalAlign=middle;whiteSpace=wrap;rounded=0;glass=0;comic=0;" parent="90" vertex="1">
          <mxGeometry x="45" y="80" width="60" height="20" as="geometry" />
        </mxCell>
        <mxCell id="QTO3XgoEFIxhdkZU8tme-141" value="" style="endArrow=classic;startArrow=classic;html=1;strokeColor=#666666;entryX=0.5;entryY=1;entryDx=0;entryDy=0;exitX=0.5;exitY=0;exitDx=0;exitDy=0;" parent="90" edge="1">
          <mxGeometry width="50" height="50" relative="1" as="geometry">
            <mxPoint x="74.65999999999997" y="160" as="sourcePoint" />
            <mxPoint x="74.65999999999997" y="120" as="targetPoint" />
          </mxGeometry>
        </mxCell>
        <mxCell id="QTO3XgoEFIxhdkZU8tme-143" value="" style="rounded=0;whiteSpace=wrap;html=1;glass=0;comic=0;strokeWidth=1;fillColor=#dae8fc;strokeColor=#6c8ebf;" parent="90" vertex="1">
          <mxGeometry x="35" y="160" width="80" height="20" as="geometry" />
        </mxCell>
        <mxCell id="QTO3XgoEFIxhdkZU8tme-142" value="&lt;div&gt;ssh-agent&lt;/div&gt;" style="text;html=1;strokeColor=none;fillColor=none;align=center;verticalAlign=middle;whiteSpace=wrap;rounded=0;glass=0;comic=0;" parent="90" vertex="1">
          <mxGeometry x="42.5" y="160" width="65" height="20" as="geometry" />
        </mxCell>
        <mxCell id="QTO3XgoEFIxhdkZU8tme-132" value="&lt;div style=&quot;font-size: 10px&quot;&gt;&lt;font style=&quot;font-size: 10px&quot;&gt;qrexec protocol&lt;/font&gt;&lt;/div&gt;&lt;div style=&quot;font-size: 10px&quot;&gt;&lt;font style=&quot;font-size: 10px&quot;&gt;(qubes.SshAgent)&lt;br&gt;&lt;/font&gt;&lt;/div&gt;" style="text;html=1;strokeColor=none;fillColor=none;align=center;verticalAlign=middle;whiteSpace=wrap;rounded=0;glass=0;comic=0;" parent="1" vertex="1">
          <mxGeometry x="520" y="110" width="40" height="10" as="geometry" />
        </mxCell>
        <mxCell id="QTO3XgoEFIxhdkZU8tme-147" style="edgeStyle=orthogonalEdgeStyle;curved=1;rounded=0;orthogonalLoop=1;jettySize=auto;html=1;exitX=0.5;exitY=1;exitDx=0;exitDy=0;strokeColor=#666666;" parent="1" source="QTO3XgoEFIxhdkZU8tme-142" edge="1">
          <mxGeometry relative="1" as="geometry">
            <mxPoint x="280" y="260" as="targetPoint" />
            <Array as="points">
              <mxPoint x="412" y="240" />
              <mxPoint x="280" y="240" />
            </Array>
          </mxGeometry>
        </mxCell>
        <mxCell id="QTO3XgoEFIxhdkZU8tme-149" value="" style="whiteSpace=wrap;html=1;aspect=fixed;rounded=0;glass=0;comic=0;strokeColor=#b85450;strokeWidth=1;fillColor=#f8cecc;" parent="1" vertex="1">
          <mxGeometry x="240" y="260" width="80" height="80" as="geometry" />
        </mxCell>
        <mxCell id="QTO3XgoEFIxhdkZU8tme-150" value="Remote server" style="text;html=1;strokeColor=none;fillColor=none;align=center;verticalAlign=middle;whiteSpace=wrap;rounded=0;glass=0;comic=0;" parent="1" vertex="1">
          <mxGeometry x="260" y="290" width="40" height="20" as="geometry" />
        </mxCell>
      </root>
    </mxGraphModel>
  </diagram>
</mxfile>
